<svg width="1083" height="218" viewBox="0 0 1083 218" fill="none" xmlns="http://www.w3.org/2000/svg">
<path d="M214.618 69.332C216.112 70.494 216.942 71.656 216.942 72.818C216.942 75.142 211.796 80.454 201.67 88.422C192.208 95.892 177.766 100.374 177.268 100.374L177.766 90.746C178.264 87.26 178.43 84.438 180.256 82.28C182.248 80.288 183.41 77.798 183.908 74.976C184.406 72.486 185.07 70.992 186.232 70.494C187.394 69.996 190.88 69.332 196.69 68.668C202.5 68.17 206.152 67.838 207.978 67.838C210.8 67.838 213.124 68.336 214.618 69.332ZM156.85 142.206C156.352 148.016 158.676 151.17 163.49 151.17C169.466 151.17 171.624 147.186 172.62 137.724C173.782 126.602 174.612 119.962 176.438 117.804C177.766 116.31 179.592 115.646 182.082 115.646C189.718 115.646 202.334 122.618 219.764 136.728C226.57 142.04 232.878 148.182 241.842 148.182C249.312 148.182 264.916 139.716 266.41 132.91C265.746 130.586 264.916 129.922 263.422 129.922C259.936 129.922 254.126 131.25 251.968 131.914C248.316 132.91 246.656 133.242 243.17 131.582C238.024 129.424 222.088 117.97 218.104 114.65C211.298 109.67 207.812 106.682 207.812 105.52C207.812 104.192 209.472 104.026 224.91 89.916C233.376 81.284 236.198 74.478 236.198 67.174C236.198 62.526 232.878 56.052 226.404 54.392C220.76 52.898 211.796 51.404 201.67 51.404C198.848 51.404 195.362 51.57 191.212 52.068C190.05 52.234 188.556 52.234 187.062 52.234C184.904 52.234 183.078 51.57 181.418 50.408C179.26 48.914 176.936 48.25 174.28 48.25C171.458 48.25 169.632 49.08 168.636 50.574C167.474 51.902 166.976 53.894 166.976 56.384C166.976 59.704 166.644 63.522 165.98 67.672C164.818 77.466 162.162 98.05 158.012 129.258C157.514 131.914 157.182 136.23 156.85 142.206ZM337.133 57.048C331.987 62.526 329.497 66.51 329.497 69.332C329.497 71.324 330.493 73.482 332.983 75.474C335.473 78.13 336.801 80.786 336.801 83.608C336.801 86.264 337.465 90.248 335.307 92.904C332.983 95.56 331.987 101.868 331.987 103.362C331.987 110.998 334.477 112.16 334.477 115.978C334.477 138.388 352.405 150.838 368.341 152C385.605 152 414.655 149.51 432.085 135.068C439.721 128.262 439.389 122.12 438.393 120.792C437.729 119.63 436.733 119.132 435.405 119.132C434.575 119.132 433.579 119.132 432.915 119.298C428.765 120.294 424.117 122.452 420.299 125.44C418.307 127.1 412.663 129.59 401.873 132.246C397.889 133.242 392.577 133.74 385.937 133.74C381.621 133.74 377.471 133.408 373.985 132.91C365.685 131.914 361.867 130.088 358.713 127.764C353.899 124.112 351.409 120.958 351.409 118.8V117.638L351.575 114.982L366.681 110.998C377.139 108.176 415.651 101.702 416.149 96.888C416.315 94.564 411.833 93.734 394.569 93.734H353.401V93.07C352.405 85.932 354.895 75.474 356.057 74.146C357.883 72.32 366.515 73.482 386.933 71.49C394.735 70.66 399.715 69.83 402.039 69C404.197 68.17 406.023 66.842 407.185 64.352C408.347 61.696 409.011 59.206 409.011 57.712C409.011 54.558 407.351 52.898 403.533 52.898H403.035L364.025 55.388C358.381 54.724 356.721 55.388 355.227 52.898C353.733 50.574 351.409 49.578 348.421 49.578C346.429 49.578 344.769 49.91 343.607 50.74C342.279 51.57 340.121 53.562 337.133 57.048ZM534.357 85.766C521.907 89.086 514.271 94.896 511.615 98.382C509.457 101.37 510.287 108.01 514.603 109.006C517.591 109.67 520.413 108.342 522.073 106.848C529.543 100.042 536.017 99.046 536.349 102.366C536.847 106.516 527.053 121.29 520.081 122.618C518.421 122.95 517.093 123.448 515.433 125.108C511.449 129.092 513.109 136.894 514.603 138.222C516.263 139.716 518.919 138.388 521.077 138.554C529.543 139.384 548.135 138.388 548.135 146.854C548.135 153.162 544.317 160.466 534.357 167.438C531.701 169.264 528.215 170.426 525.061 170.426C523.899 170.426 523.235 169.928 523.235 168.766C523.235 167.438 523.567 166.774 524.231 166.774C524.895 166.774 525.891 164.45 525.891 164.118C525.891 161.96 523.069 158.64 521.243 158.308C518.255 158.308 513.441 162.79 510.785 167.77C509.291 170.758 508.627 173.248 508.627 175.074C508.627 180.054 511.117 185.2 520.247 185.2C526.223 185.2 533.527 183.208 541.495 178.062C549.795 172.584 563.241 159.968 563.241 143.202C563.241 130.752 554.941 124.278 539.835 122.784C548.135 114.318 553.281 104.026 553.281 96.224C553.281 85.434 542.159 83.608 534.357 85.766ZM721.991 29.658C706.055 37.294 692.111 57.712 687.629 72.652L684.475 83.276C675.345 83.774 671.029 83.276 669.535 84.272C668.207 85.102 667.709 86.098 667.211 87.094C666.381 88.422 666.049 91.41 667.045 93.402C668.373 96.224 677.503 96.39 682.483 96.39L681.487 100.208C676.341 100.208 672.025 99.544 670.365 100.208C668.207 101.038 666.713 105.188 667.211 107.512C667.709 109.67 669.535 111.164 678.499 111.662C670.199 136.562 658.579 141.874 649.615 149.51C647.291 151.502 646.129 153.494 646.129 155.486C646.129 156.814 646.793 158.308 647.955 159.968C648.951 161.13 650.113 161.794 651.275 161.794C652.769 161.794 655.591 160.466 659.409 157.976C662.563 155.818 666.879 154.324 672.191 153.66C677.503 152.83 685.305 151.004 698.087 152.498C728.465 155.984 735.437 152.498 736.267 152.166C738.259 151.336 740.583 149.676 740.583 146.19C740.583 143.202 739.919 138.388 731.287 139.716C713.525 142.372 696.759 138.554 678.665 140.712C683.645 134.736 688.293 127.764 692.443 112.492L710.869 112.326C715.351 112.326 722.157 111.164 721.161 107.18C719.833 102.2 707.383 101.37 694.435 100.208L695.431 96.058C699.747 96.058 722.157 96.39 722.821 90.912C723.319 87.094 715.683 84.106 709.873 83.94L697.257 83.276C699.913 71.656 704.229 62.692 706.885 58.376C711.699 50.408 720.995 43.436 726.473 41.444C731.287 39.618 734.109 37.626 734.109 33.31C734.109 27.998 727.469 27.002 721.991 29.658ZM876.896 67.506C869.094 68.668 862.952 71.822 857.64 75.308C849.838 80.62 846.02 86.098 846.02 94.232C846.02 98.05 846.352 104.69 856.478 109.836C845.854 115.314 838.384 123.282 838.384 131.25C838.384 136.064 843.032 141.542 849.34 144.53C858.636 149.012 868.596 151.004 890.674 151.004H896.65C907.274 151.004 917.898 151.17 917.898 142.04C917.898 134.238 907.108 138.222 899.306 138.222C876.232 138.222 857.806 138.388 857.474 129.59C857.308 124.776 868.596 119.796 885.694 118.136C893.662 117.306 897.812 114.484 897.812 109.836C897.812 107.346 896.65 104.69 893.828 103.362C892.002 102.532 887.52 102.2 880.382 102.2C867.6 102.2 861.624 100.872 861.624 94.232C861.624 88.09 868.928 81.948 877.726 80.62C889.512 78.794 892.334 82.778 897.646 82.114C900.302 81.782 901.132 79.126 901.132 76.636C901.132 74.478 900.634 72.652 899.472 71.49C895.156 66.842 886.358 66.178 876.896 67.506Z" fill="#171B36"/>
</svg>
